<svg id="Layer_1" data-name="Layer 1" xmlns="http://www.w3.org/2000/svg" xmlns:xlink="http://www.w3.org/1999/xlink" viewBox="0 0 2000 2000"><defs><style>.cls-1{font-size:160px;font-family:Poppins-SemiBold, Poppins;font-weight:600;letter-spacing:-0.06em;}.cls-2{fill:url(#linear-gradient);}.cls-3{fill:url(#linear-gradient-2);}.cls-4{fill:url(#linear-gradient-3);}.cls-5{fill:url(#linear-gradient-4);}.cls-6{fill:url(#linear-gradient-5);}</style><linearGradient id="linear-gradient" x1="909.87" y1="484.98" x2="259.5" y2="1035.66" gradientUnits="userSpaceOnUse"><stop offset="0" stop-color="#6c63f6"/><stop offset="0.01" stop-color="#4280f5"/><stop offset="0.49" stop-color="#02feab"/><stop offset="1" stop-color="#447af6"/></linearGradient><linearGradient id="linear-gradient-2" x1="610.78" y1="1064.62" x2="993.73" y2="794.03" xlink:href="#linear-gradient"/><linearGradient id="linear-gradient-3" x1="715.68" y1="799.93" x2="554.23" y2="948.71" xlink:href="#linear-gradient"/><linearGradient id="linear-gradient-4" x1="391.34" y1="1314.26" x2="356.53" y2="902.83" xlink:href="#linear-gradient"/><linearGradient id="linear-gradient-5" x1="486.86" y1="740.77" x2="521.68" y2="1133.21" xlink:href="#linear-gradient"/></defs><title>Artboard 4</title><g id="_7" data-name="7"><g id="text"><text class="cls-1" transform="translate(777.65 955.43)">The Mastery</text><text class="cls-1" transform="translate(801.39 1108.24)">House</text></g><polygon class="cls-2" points="581 837.87 502.28 796.88 326.86 904.2 366.55 969.07 581 837.87"/><polygon class="cls-3" points="707.14 895.59 631.1 934.94 631.1 1111.85 707.14 1111.85 707.14 895.59"/><polygon class="cls-4" points="707.14 895.14 634.53 848.19 472.15 937.01 508.64 1003.72 707.14 895.14"/><polygon class="cls-5" points="401.61 858.48 325.56 904.98 325.56 1113.98 401.61 1113.98 401.61 858.48"/><polygon class="cls-6" points="548.4 897.71 472.36 937.07 472.36 1113.98 548.4 1113.98 548.4 897.71"/></g></svg>